<svg 
 xmlns="http://www.w3.org/2000/svg"
 xmlns:xlink="http://www.w3.org/1999/xlink"
 width="221px" height="42px" viewBox="0, 0, 5055, 961">
<path fill-rule="evenodd"  fill="rgb(255, 255, 255)"
 d="M5033.227,910.199 L4956.049,790.393 L4955.241,790.393 C4955.509,795.109 4955.847,800.968 4956.251,807.970 C4956.655,814.975 4956.857,822.182 4956.857,829.587 L4956.857,910.199 L4940.088,910.199 L4940.088,765.946 L4961.100,765.946 L5038.075,885.349 L5038.883,885.349 C5038.748,883.196 5038.580,879.964 5038.378,875.651 C5038.176,871.342 5037.974,866.661 5037.772,861.610 C5037.570,856.559 5037.469,851.811 5037.469,847.367 L5037.469,765.946 L5054.440,765.946 L5054.440,910.199 L5033.227,910.199 ZM4961.716,495.358 C4968.939,499.411 4978.460,503.730 4990.279,508.326 C5003.411,513.579 5014.625,519.109 5023.930,524.906 C5033.230,530.708 5040.289,537.710 5045.106,545.918 C5049.918,554.125 5052.329,564.359 5052.329,576.614 C5052.329,597.411 5044.777,613.713 5029.675,625.532 C5014.573,637.351 4993.890,643.261 4967.625,643.261 C4954.709,643.261 4942.674,642.219 4931.512,640.142 C4920.349,638.064 4910.828,635.053 4902.949,631.113 L4902.949,597.626 C4911.700,601.566 4921.991,605.126 4933.810,608.296 C4945.629,611.471 4957.663,613.056 4969.924,613.056 C4985.682,613.056 4997.501,609.994 5005.381,603.864 C5013.260,597.739 5017.200,589.531 5017.200,579.241 C5017.200,572.018 5015.445,565.944 5011.947,561.020 C5008.443,556.095 5002.806,551.499 4995.039,547.231 C4987.268,542.963 4977.146,538.423 4964.671,533.606 C4953.288,529.230 4943.110,524.085 4934.138,518.176 C4925.161,512.266 4918.159,504.936 4913.127,496.179 C4908.089,487.428 4905.575,476.701 4905.575,464.005 C4905.575,444.748 4912.578,429.646 4926.587,418.699 C4940.591,407.757 4958.977,402.283 4981.743,402.283 C4994.434,402.283 5006.201,403.597 5017.036,406.223 C5027.870,408.849 5038.211,412.245 5048.061,416.401 L5036.898,445.620 C5027.921,441.901 5018.785,438.838 5009.485,436.427 C5000.179,434.021 4990.607,432.816 4980.758,432.816 C4967.841,432.816 4957.992,435.663 4951.210,441.352 C4944.423,447.046 4941.033,454.484 4941.033,463.677 C4941.033,470.899 4942.674,476.973 4945.957,481.898 C4949.240,486.822 4954.493,491.311 4961.716,495.358 ZM4831.806,639.978 L4775.338,545.097 L4734.628,545.097 L4734.628,639.978 L4699.170,639.978 L4699.170,405.566 L4764.832,405.566 C4794.815,405.566 4816.976,411.148 4831.314,422.310 C4845.646,433.472 4852.818,450.437 4852.818,473.198 C4852.818,485.237 4850.628,495.358 4846.252,503.566 C4841.871,511.774 4836.126,518.504 4829.016,523.757 C4821.901,529.010 4814.514,533.062 4806.855,535.904 L4872.516,639.978 L4831.806,639.978 ZM4816.376,474.511 C4816.376,460.507 4811.995,450.544 4803.244,444.635 C4794.487,438.725 4780.919,435.771 4762.534,435.771 L4734.628,435.771 L4734.628,515.549 L4764.175,515.549 C4782.340,515.549 4795.580,512.102 4803.900,505.208 C4812.216,498.313 4816.376,488.084 4816.376,474.511 ZM4517.751,405.566 L4649.730,405.566 L4649.730,435.771 L4553.208,435.771 L4553.208,502.745 L4643.821,502.745 L4643.821,532.621 L4553.208,532.621 L4553.208,609.445 L4649.730,609.445 L4649.730,639.978 L4517.751,639.978 L4517.751,405.566 ZM4453.895,910.199 L4435.712,910.199 L4435.712,781.907 L4390.658,781.907 L4390.658,765.946 L4498.747,765.946 L4498.747,781.907 L4453.895,781.907 L4453.895,910.199 ZM4294.901,450.544 L4293.587,450.544 C4294.024,459.301 4294.516,469.314 4295.065,480.585 C4295.609,491.860 4295.993,503.402 4296.214,515.221 L4296.214,639.978 L4264.040,639.978 L4264.040,405.566 L4306.720,405.566 L4424.910,594.015 L4425.895,594.015 C4425.675,589.418 4425.403,583.622 4425.074,576.614 C4424.746,569.612 4424.469,562.118 4424.254,554.125 C4424.033,546.138 4423.812,538.644 4423.597,531.636 L4423.597,405.566 L4456.428,405.566 L4456.428,639.978 L4413.419,639.978 L4294.901,450.544 ZM4155.013,639.978 L4119.556,639.978 L4119.556,436.099 L4049.298,436.099 L4049.298,405.566 L4225.271,405.566 L4225.271,436.099 L4155.013,436.099 L4155.013,639.978 ZM3997.132,639.978 L3940.663,545.097 L3899.953,545.097 L3899.953,639.978 L3864.496,639.978 L3864.496,405.566 L3930.157,405.566 C3960.141,405.566 3982.301,411.148 3996.639,422.310 C4010.972,433.472 4018.143,450.437 4018.143,473.198 C4018.143,485.237 4015.953,495.358 4011.577,503.566 C4007.196,511.774 4001.451,518.504 3994.341,523.757 C3987.226,529.010 3979.839,533.062 3972.180,535.904 L4037.842,639.978 L3997.132,639.978 ZM3981.701,474.511 C3981.701,460.507 3977.320,450.544 3968.569,444.635 C3959.812,438.725 3946.244,435.771 3927.859,435.771 L3899.953,435.771 L3899.953,515.549 L3929.500,515.549 C3947.665,515.549 3960.905,512.102 3969.226,505.208 C3977.541,498.313 3981.701,488.084 3981.701,474.511 ZM3903.597,772.917 C3913.427,779.047 3920.871,787.665 3925.922,798.777 C3930.973,809.889 3933.498,822.920 3933.498,837.871 C3933.498,852.822 3930.973,865.853 3925.922,876.965 C3920.871,888.077 3913.396,896.733 3903.496,902.926 C3893.596,909.123 3881.439,912.220 3867.028,912.220 C3852.078,912.220 3839.653,909.123 3829.753,902.926 C3819.853,896.733 3812.479,888.045 3807.630,876.864 C3802.781,865.685 3800.357,852.619 3800.357,837.669 C3800.357,822.990 3802.781,810.091 3807.630,798.979 C3812.479,787.867 3819.853,779.214 3829.753,773.018 C3839.653,766.824 3852.144,763.724 3867.230,763.724 C3881.641,763.724 3893.764,766.789 3903.597,772.917 ZM3831.066,795.140 C3823.389,805.444 3819.550,819.688 3819.550,837.871 C3819.550,856.054 3823.389,870.367 3831.066,880.803 C3838.744,891.243 3850.730,896.461 3867.028,896.461 C3883.324,896.461 3895.279,891.243 3902.890,880.803 C3910.498,870.367 3914.305,856.054 3914.305,837.871 C3914.305,819.688 3910.532,805.444 3902.991,795.140 C3895.446,784.837 3883.526,779.685 3867.230,779.685 C3850.796,779.685 3838.744,784.837 3831.066,795.140 ZM3765.415,572.346 L3674.803,572.346 L3649.851,639.978 L3613.081,639.978 L3702.052,404.581 L3738.823,404.581 L3827.465,639.978 L3790.367,639.978 L3765.415,572.346 ZM3731.928,475.496 C3731.051,473.090 3729.845,469.479 3728.317,464.662 C3726.783,459.850 3725.249,454.812 3723.720,449.560 C3722.187,444.307 3720.981,440.039 3720.109,436.756 C3718.354,443.542 3716.385,450.765 3714.199,458.424 C3712.009,466.088 3710.260,471.777 3708.946,475.496 L3685.308,541.485 L3755.566,541.485 L3731.928,475.496 ZM3574.834,540.336 C3561.260,547.451 3542.875,551.006 3519.678,551.006 L3494.398,551.006 L3494.398,639.978 L3458.941,639.978 L3458.941,405.566 L3524.603,405.566 C3555.243,405.566 3577.568,411.753 3591.577,424.116 C3605.581,436.484 3612.589,453.720 3612.589,475.824 C3612.589,488.956 3609.685,501.217 3603.888,512.594 C3598.087,523.977 3588.402,533.227 3574.834,540.336 ZM3563.014,445.784 C3554.258,438.890 3540.577,435.442 3521.976,435.442 L3494.398,435.442 L3494.398,521.130 L3515.738,521.130 C3535.652,521.130 3550.703,517.796 3560.880,511.117 C3571.058,504.443 3576.147,493.117 3576.147,477.137 C3576.147,463.133 3571.766,452.678 3563.014,445.784 ZM3512.015,776.149 C3520.567,782.952 3524.844,793.221 3524.844,806.960 C3524.844,814.637 3523.430,821.036 3520.601,826.153 C3517.773,831.273 3514.168,835.380 3509.792,838.477 C3505.414,841.577 3500.802,843.932 3495.953,845.548 L3535.552,910.199 L3514.338,910.199 L3479.386,850.599 L3450.697,850.599 L3450.697,910.199 L3432.514,910.199 L3432.514,765.946 L3472.315,765.946 C3490.226,765.946 3503.460,769.349 3512.015,776.149 ZM3450.697,781.705 L3450.697,835.244 L3472.315,835.244 C3484.033,835.244 3492.585,832.921 3497.973,828.274 C3503.359,823.627 3506.055,816.793 3506.055,807.768 C3506.055,798.341 3503.226,791.640 3497.569,787.665 C3491.912,783.694 3483.155,781.705 3471.305,781.705 L3450.697,781.705 ZM3307.941,902.926 C3298.041,909.123 3285.884,912.220 3271.474,912.220 C3256.523,912.220 3244.098,909.123 3234.198,902.926 C3224.299,896.733 3216.924,888.045 3212.075,876.864 C3207.226,865.685 3204.802,852.619 3204.802,837.669 C3204.802,822.990 3207.226,810.091 3212.075,798.979 C3216.924,787.867 3224.299,779.214 3234.198,773.018 C3244.098,766.824 3256.589,763.724 3271.676,763.724 C3286.086,763.724 3298.209,766.789 3308.042,772.917 C3317.872,779.047 3325.316,787.665 3330.367,798.777 C3335.418,809.889 3337.943,822.920 3337.943,837.871 C3337.943,852.822 3335.418,865.853 3330.367,876.965 C3325.316,888.077 3317.841,896.733 3307.941,902.926 ZM3307.436,795.140 C3299.891,784.837 3287.971,779.685 3271.676,779.685 C3255.241,779.685 3243.189,784.837 3235.511,795.140 C3227.834,805.444 3223.995,819.688 3223.995,837.871 C3223.995,856.054 3227.834,870.367 3235.511,880.803 C3243.189,891.243 3255.175,896.461 3271.474,896.461 C3287.769,896.461 3299.724,891.243 3307.335,880.803 C3314.943,870.367 3318.750,856.054 3318.750,837.871 C3318.750,819.688 3314.977,805.444 3307.436,795.140 ZM3251.128,639.978 L3215.671,639.978 L3215.671,436.099 L3145.413,436.099 L3145.413,405.566 L3321.386,405.566 L3321.386,436.099 L3251.128,436.099 L3251.128,639.978 ZM3107.585,782.311 C3102.130,780.695 3096.170,779.887 3089.705,779.887 C3074.215,779.887 3062.026,785.073 3053.137,795.444 C3044.247,805.817 3039.802,820.026 3039.802,838.073 C3039.802,855.988 3043.944,870.165 3052.228,880.601 C3060.511,891.041 3072.936,896.259 3089.503,896.259 C3095.697,896.259 3101.625,895.722 3107.282,894.643 C3112.939,893.566 3118.527,892.218 3124.051,890.602 L3124.051,906.361 C3118.662,908.381 3113.106,909.865 3107.383,910.806 C3101.657,911.746 3094.822,912.220 3086.877,912.220 C3072.194,912.220 3059.936,909.189 3050.106,903.128 C3040.273,897.067 3032.898,888.449 3027.983,877.268 C3023.065,866.090 3020.609,852.957 3020.609,837.871 C3020.609,823.324 3023.267,810.495 3028.589,799.383 C3033.909,788.271 3041.753,779.584 3052.127,773.321 C3062.497,767.058 3075.089,763.926 3089.907,763.926 C3105.126,763.926 3118.394,766.755 3129.708,772.412 L3122.435,787.766 C3117.990,785.746 3113.040,783.928 3107.585,782.311 ZM2945.085,450.544 L2943.772,450.544 C2944.208,459.301 2944.700,469.314 2945.249,480.585 C2945.793,491.860 2946.178,503.402 2946.398,515.221 L2946.398,639.978 L2914.224,639.978 L2914.224,405.566 L2956.904,405.566 L3075.095,594.015 L3076.080,594.015 C3075.859,589.418 3075.587,583.622 3075.259,576.614 C3074.930,569.612 3074.653,562.118 3074.438,554.125 C3074.217,546.138 3073.997,538.644 3073.781,531.636 L3073.781,405.566 L3106.612,405.566 L3106.612,639.978 L3063.604,639.978 L2945.085,450.544 ZM2732.805,405.566 L2864.784,405.566 L2864.784,435.771 L2768.262,435.771 L2768.262,502.745 L2858.875,502.745 L2858.875,532.621 L2768.262,532.621 L2768.262,609.445 L2864.784,609.445 L2864.784,639.978 L2732.805,639.978 L2732.805,405.566 ZM2772.108,763.926 C2779.918,763.926 2787.125,764.668 2793.726,766.148 C2800.324,767.632 2806.385,769.583 2811.909,772.007 L2806.252,787.564 C2801.267,785.411 2795.812,783.593 2789.887,782.109 C2783.959,780.629 2777.898,779.887 2771.704,779.887 C2762.679,779.887 2755.876,781.806 2751.299,785.645 C2746.718,789.484 2744.429,794.569 2744.429,800.898 C2744.429,805.747 2745.440,809.788 2747.460,813.021 C2749.480,816.253 2752.779,819.183 2757.360,821.809 C2761.937,824.436 2768.134,827.163 2775.947,829.992 C2784.432,833.092 2791.604,836.425 2797.463,839.992 C2803.322,843.563 2807.767,847.840 2810.798,852.822 C2813.828,857.806 2815.344,864.069 2815.344,871.611 C2815.344,884.408 2810.697,894.374 2801.403,901.512 C2792.110,908.653 2779.583,912.220 2763.825,912.220 C2755.743,912.220 2748.268,911.614 2741.399,910.401 C2734.530,909.189 2728.803,907.507 2724.226,905.351 L2724.226,887.976 C2729.075,890.132 2735.101,892.086 2742.308,893.835 C2749.512,895.587 2756.955,896.461 2764.633,896.461 C2775.271,896.461 2783.353,894.374 2788.877,890.198 C2794.398,886.025 2797.160,880.368 2797.160,873.227 C2797.160,868.514 2796.150,864.540 2794.130,861.307 C2792.110,858.074 2788.606,855.113 2783.624,852.417 C2778.639,849.725 2771.837,846.760 2763.219,843.528 C2750.825,839.083 2741.531,833.628 2735.338,827.163 C2729.141,820.698 2726.044,811.878 2726.044,800.696 C2726.044,793.155 2727.995,786.623 2731.903,781.099 C2735.808,775.578 2741.197,771.335 2748.066,768.371 C2754.935,765.410 2762.947,763.926 2772.108,763.926 ZM2637.202,505.700 C2637.202,498.041 2637.366,490.162 2637.694,482.062 C2638.023,473.967 2638.351,466.303 2638.679,459.080 C2639.008,451.858 2639.280,445.840 2639.500,441.024 L2638.187,441.024 L2565.303,639.978 L2534.770,639.978 L2463.856,440.695 L2462.543,440.695 C2462.979,445.292 2463.363,451.257 2463.692,458.588 C2464.020,465.924 2464.292,473.911 2464.512,482.554 C2464.728,491.203 2464.841,499.575 2464.841,507.670 L2464.841,639.978 L2432.667,639.978 L2432.667,405.566 L2483.226,405.566 L2550.529,593.686 L2551.842,593.686 L2621.115,405.566 L2671.674,405.566 L2671.674,639.978 L2637.202,639.978 L2637.202,505.700 ZM2251.247,405.566 L2383.226,405.566 L2383.226,435.771 L2286.704,435.771 L2286.704,502.745 L2377.317,502.745 L2377.317,532.621 L2286.704,532.621 L2286.704,609.445 L2383.226,609.445 L2383.226,639.978 L2251.247,639.978 L2251.247,405.566 ZM2251.306,776.452 L2234.335,780.493 L2234.335,895.855 L2251.306,899.694 L2251.306,910.199 L2199.181,910.199 L2199.181,899.694 L2216.151,895.855 L2216.151,780.493 L2199.181,776.452 L2199.181,765.946 L2251.306,765.946 L2251.306,776.452 ZM2111.983,643.261 C2076.084,643.261 2048.563,632.647 2029.413,611.415 C2010.259,590.188 2000.687,560.640 2000.687,522.772 C2000.687,498.262 2005.447,476.973 2014.968,458.916 C2024.489,440.859 2038.329,426.906 2056.499,417.057 C2074.663,407.208 2096.660,402.283 2122.489,402.283 C2135.400,402.283 2147.768,403.597 2159.587,406.223 C2171.406,408.849 2182.348,412.245 2192.418,416.401 L2179.614,445.948 C2171.514,442.229 2162.429,439.110 2152.364,436.591 C2142.295,434.078 2131.897,432.816 2121.175,432.816 C2103.883,432.816 2088.945,436.484 2076.361,443.814 C2063.773,451.150 2054.144,461.599 2047.470,475.167 C2040.791,488.741 2037.457,504.715 2037.457,523.100 C2037.457,540.613 2040.191,556.152 2045.665,569.720 C2051.133,583.293 2059.782,593.907 2071.601,601.566 C2083.420,609.230 2098.850,613.056 2117.892,613.056 C2127.300,613.056 2135.236,612.564 2141.694,611.579 C2148.148,610.594 2154.114,609.445 2159.587,608.132 L2159.587,544.440 L2110.013,544.440 L2110.013,513.908 L2194.716,513.908 L2194.716,630.785 C2182.240,634.945 2169.488,638.064 2156.468,640.142 C2143.444,642.219 2128.613,643.261 2111.983,643.261 ZM1923.045,572.346 L1832.432,572.346 L1807.481,639.978 L1770.710,639.978 L1859.682,404.581 L1896.452,404.581 L1985.095,639.978 L1947.996,639.978 L1923.045,572.346 ZM1889.557,475.496 C1888.680,473.090 1887.475,469.479 1885.946,464.662 C1884.412,459.850 1882.878,454.812 1881.350,449.560 C1879.816,444.307 1878.610,440.039 1877.738,436.756 C1875.984,443.542 1874.014,450.765 1871.829,458.424 C1869.638,466.088 1867.889,471.777 1866.576,475.496 L1842.938,541.485 L1913.196,541.485 L1889.557,475.496 ZM1703.148,899.694 L1720.119,895.855 L1720.119,780.493 L1703.148,776.452 L1703.148,765.946 L1755.273,765.946 L1755.273,776.452 L1738.302,780.493 L1738.302,895.855 L1755.273,899.694 L1755.273,910.199 L1703.148,910.199 L1703.148,899.694 ZM1572.319,450.544 L1571.006,450.544 C1571.442,459.301 1571.934,469.314 1572.483,480.585 C1573.027,491.860 1573.412,503.402 1573.632,515.221 L1573.632,639.978 L1541.458,639.978 L1541.458,405.566 L1584.138,405.566 L1702.329,594.015 L1703.314,594.015 C1703.093,589.418 1702.821,583.622 1702.493,576.614 C1702.165,569.612 1701.888,562.118 1701.672,554.125 C1701.452,546.138 1701.231,538.644 1701.016,531.636 L1701.016,405.566 L1733.846,405.566 L1733.846,639.978 L1690.838,639.978 L1572.319,450.544 ZM1557.988,894.037 L1621.023,894.037 L1621.023,910.199 L1539.805,910.199 L1539.805,765.946 L1557.988,765.946 L1557.988,894.037 ZM1442.378,572.346 L1351.765,572.346 L1326.814,639.978 L1290.044,639.978 L1379.015,404.581 L1415.785,404.581 L1504.428,639.978 L1467.329,639.978 L1442.378,572.346 ZM1408.891,475.496 C1408.014,473.090 1406.808,469.479 1405.279,464.662 C1403.746,459.850 1402.212,454.812 1400.683,449.560 C1399.149,444.307 1397.944,440.039 1397.072,436.756 C1395.317,443.542 1393.348,450.765 1391.162,458.424 C1388.972,466.088 1387.223,471.777 1385.909,475.496 L1362.271,541.485 L1432.529,541.485 L1408.891,475.496 ZM1307.427,765.946 L1307.427,910.199 L1289.244,910.199 L1289.244,842.922 L1215.299,842.922 L1215.299,910.199 L1197.116,910.199 L1197.116,765.946 L1215.299,765.946 L1215.299,826.961 L1289.244,826.961 L1289.244,765.946 L1307.427,765.946 ZM1218.867,505.700 C1218.867,498.041 1219.031,490.162 1219.359,482.062 C1219.688,473.967 1220.016,466.303 1220.344,459.080 C1220.673,451.858 1220.945,445.840 1221.165,441.024 L1219.852,441.024 L1146.968,639.978 L1116.435,639.978 L1045.521,440.695 L1044.208,440.695 C1044.644,445.292 1045.028,451.257 1045.357,458.588 C1045.685,465.924 1045.957,473.911 1046.177,482.554 C1046.393,491.203 1046.506,499.575 1046.506,507.670 L1046.506,639.978 L1014.332,639.978 L1014.332,405.566 L1064.891,405.566 L1132.194,593.686 L1133.507,593.686 L1202.780,405.566 L1253.339,405.566 L1253.339,639.978 L1218.867,639.978 L1218.867,505.700 ZM1094.140,777.058 C1102.758,784.467 1107.070,794.907 1107.070,808.374 C1107.070,816.323 1105.283,823.763 1101.716,830.699 C1098.146,837.637 1092.151,843.260 1083.735,847.569 C1075.316,851.881 1063.901,854.034 1049.490,854.034 L1032.923,854.034 L1032.923,910.199 L1014.740,910.199 L1014.740,765.946 L1052.925,765.946 C1071.780,765.946 1085.518,769.653 1094.140,777.058 ZM1032.923,781.503 L1032.923,838.477 L1047.470,838.477 C1061.208,838.477 1071.442,836.255 1078.179,831.810 C1084.912,827.365 1088.281,819.823 1088.281,809.182 C1088.281,799.888 1085.282,792.953 1079.290,788.372 C1073.295,783.795 1063.967,781.503 1051.308,781.503 L1032.923,781.503 ZM1449.680,776.452 L1432.709,780.493 L1432.709,895.855 L1449.680,899.694 L1449.680,910.199 L1397.555,910.199 L1397.555,899.694 L1414.525,895.855 L1414.525,780.493 L1397.555,776.452 L1397.555,765.946 L1449.680,765.946 L1449.680,776.452 ZM1924.798,777.058 C1933.416,784.467 1937.729,794.907 1937.729,808.374 C1937.729,816.323 1935.942,823.763 1932.375,830.699 C1928.804,837.637 1922.810,843.260 1914.394,847.569 C1905.974,851.881 1894.559,854.034 1880.149,854.034 L1863.582,854.034 L1863.582,910.199 L1845.399,910.199 L1845.399,765.946 L1883.583,765.946 C1902.439,765.946 1916.177,769.653 1924.798,777.058 ZM1863.582,781.503 L1863.582,838.477 L1878.128,838.477 C1891.867,838.477 1902.101,836.255 1908.838,831.810 C1915.571,827.365 1918.939,819.823 1918.939,809.182 C1918.939,799.888 1915.940,792.953 1909.949,788.372 C1903.954,783.795 1894.626,781.503 1881.967,781.503 L1863.582,781.503 ZM2107.175,777.058 C2115.793,784.467 2120.105,794.907 2120.105,808.374 C2120.105,816.323 2118.318,823.763 2114.751,830.699 C2111.181,837.637 2105.186,843.260 2096.770,847.569 C2088.351,851.881 2076.936,854.034 2062.525,854.034 L2045.958,854.034 L2045.958,910.199 L2027.775,910.199 L2027.775,765.946 L2065.959,765.946 C2084.815,765.946 2098.553,769.653 2107.175,777.058 ZM2045.958,781.503 L2045.958,838.477 L2060.504,838.477 C2074.243,838.477 2084.477,836.255 2091.214,831.810 C2097.947,827.365 2101.316,819.823 2101.316,809.182 C2101.316,799.888 2098.317,792.953 2092.325,788.372 C2086.330,783.795 2077.002,781.503 2064.343,781.503 L2045.958,781.503 ZM2439.418,885.349 L2440.226,885.349 C2440.090,883.196 2439.923,879.964 2439.721,875.651 C2439.519,871.342 2439.317,866.661 2439.115,861.610 C2438.913,856.559 2438.812,851.811 2438.812,847.367 L2438.812,765.946 L2455.783,765.946 L2455.783,910.199 L2434.569,910.199 L2357.392,790.393 L2356.584,790.393 C2356.852,795.109 2357.190,800.968 2357.594,807.970 C2357.998,814.975 2358.200,822.182 2358.200,829.587 L2358.200,910.199 L2341.431,910.199 L2341.431,765.946 L2362.443,765.946 L2439.418,885.349 ZM2637.613,781.907 L2575.185,781.907 L2575.185,826.961 L2633.977,826.961 L2633.977,842.720 L2575.185,842.720 L2575.185,894.239 L2637.613,894.239 L2637.613,910.199 L2557.001,910.199 L2557.001,765.946 L2637.613,765.946 L2637.613,781.907 ZM3701.664,777.058 C3710.282,784.467 3714.594,794.907 3714.594,808.374 C3714.594,816.323 3712.807,823.763 3709.240,830.699 C3705.670,837.637 3699.675,843.260 3691.259,847.569 C3682.840,851.881 3671.425,854.034 3657.014,854.034 L3640.447,854.034 L3640.447,910.199 L3622.264,910.199 L3622.264,765.946 L3660.449,765.946 C3679.304,765.946 3693.043,769.653 3701.664,777.058 ZM3640.447,781.503 L3640.447,838.477 L3654.994,838.477 C3668.732,838.477 3678.966,836.255 3685.703,831.810 C3692.436,827.365 3695.805,819.823 3695.805,809.182 C3695.805,799.888 3692.806,792.953 3686.814,788.372 C3680.820,783.795 3671.491,781.503 3658.832,781.503 L3640.447,781.503 ZM4107.569,776.149 C4116.121,782.952 4120.399,793.221 4120.399,806.960 C4120.399,814.637 4118.984,821.036 4116.156,826.153 C4113.328,831.273 4109.723,835.380 4105.347,838.477 C4100.969,841.577 4096.357,843.932 4091.508,845.548 L4131.107,910.199 L4109.893,910.199 L4074.941,850.599 L4046.252,850.599 L4046.252,910.199 L4028.069,910.199 L4028.069,765.946 L4067.870,765.946 C4085.781,765.946 4099.015,769.349 4107.569,776.149 ZM4046.252,781.705 L4046.252,835.244 L4067.870,835.244 C4079.588,835.244 4088.140,832.921 4093.528,828.274 C4098.914,823.627 4101.610,816.793 4101.610,807.768 C4101.610,798.341 4098.781,791.640 4093.124,787.665 C4087.467,783.694 4078.710,781.705 4066.859,781.705 L4046.252,781.705 ZM4281.298,765.340 L4337.464,910.199 L4318.675,910.199 L4301.300,865.550 L4244.124,865.550 L4226.951,910.199 L4208.566,910.199 L4264.933,765.340 L4281.298,765.340 ZM4295.845,849.387 L4279.682,805.747 C4279.278,804.671 4278.602,802.717 4277.662,799.888 C4276.718,797.060 4275.809,794.130 4274.934,791.100 C4274.057,788.069 4273.349,785.746 4272.813,784.130 C4271.733,788.306 4270.622,792.381 4269.479,796.353 C4268.333,800.327 4267.358,803.459 4266.550,805.747 L4250.185,849.387 L4295.845,849.387 ZM4631.666,776.452 L4614.695,780.493 L4614.695,895.855 L4631.666,899.694 L4631.666,910.199 L4579.541,910.199 L4579.541,899.694 L4596.512,895.855 L4596.512,780.493 L4579.541,776.452 L4579.541,765.946 L4631.666,765.946 L4631.666,776.452 ZM4741.773,773.018 C4751.672,766.824 4764.164,763.724 4779.250,763.724 C4793.661,763.724 4805.783,766.789 4815.616,772.917 C4825.447,779.047 4832.890,787.665 4837.941,798.777 C4842.992,809.889 4845.518,822.920 4845.518,837.871 C4845.518,852.822 4842.992,865.853 4837.941,876.965 C4832.890,888.077 4825.415,896.733 4815.515,902.926 C4805.616,909.123 4793.459,912.220 4779.048,912.220 C4764.097,912.220 4751.672,909.123 4741.773,902.926 C4731.873,896.733 4724.499,888.045 4719.650,876.864 C4714.801,865.685 4712.377,852.619 4712.377,837.669 C4712.377,822.990 4714.801,810.091 4719.650,798.979 C4724.499,787.867 4731.873,779.214 4741.773,773.018 ZM4743.086,880.803 C4750.763,891.243 4762.750,896.461 4779.048,896.461 C4795.343,896.461 4807.298,891.243 4814.909,880.803 C4822.517,870.367 4826.324,856.054 4826.324,837.871 C4826.324,819.688 4822.552,805.444 4815.010,795.140 C4807.466,784.837 4795.545,779.685 4779.250,779.685 C4762.816,779.685 4750.763,784.837 4743.086,795.140 C4735.408,805.444 4731.570,819.688 4731.570,837.871 C4731.570,856.054 4735.408,870.367 4743.086,880.803 Z"/>
<path fill-rule="evenodd"  fill="rgb(255, 255, 255)"
 d="M-0.000,226.000 L51.000,226.000 C51.000,83.490 127.879,50.000 283.000,50.000 L283.000,-0.000 L-0.000,-0.000 L-0.000,226.000 ZM225.000,961.000 L677.000,961.000 L677.000,911.000 L561.000,891.000 L561.000,-0.000 L341.000,-0.000 L341.000,891.000 L225.000,911.000 L225.000,961.000 ZM851.000,226.000 L902.000,226.000 L902.000,-0.000 L619.000,-0.000 L619.000,50.000 C774.121,50.000 851.000,83.490 851.000,226.000 Z"/>
</svg>